<?xml version="1.0" encoding="utf-8"?>
<!-- Generator: Adobe Illustrator 18.1.1, SVG Export Plug-In . SVG Version: 6.00 Build 0)  -->
<svg version="1.1" id="Calque_1" xmlns="http://www.w3.org/2000/svg" xmlns:xlink="http://www.w3.org/1999/xlink" x="0px" y="0px"
	 viewBox="-402 376 473.8 49" enable-background="new -402 376 473.8 49" xml:space="preserve">
<metadata><?xpacket begin="﻿" id="W5M0MpCehiHzreSzNTczkc9d"?>
<x:xmpmeta xmlns:x="adobe:ns:meta/" x:xmptk="Adobe XMP Core 5.6-c014 79.156821, 2014/08/29-03:07:50        ">
   <rdf:RDF xmlns:rdf="http://www.w3.org/1999/02/22-rdf-syntax-ns#">
      <rdf:Description rdf:about=""
            xmlns:xmp="http://ns.adobe.com/xap/1.0/"
            xmlns:xmpGImg="http://ns.adobe.com/xap/1.0/g/img/"
            xmlns:xmpTPg="http://ns.adobe.com/xap/1.0/t/pg/"
            xmlns:stDim="http://ns.adobe.com/xap/1.0/sType/Dimensions#"
            xmlns:xmpG="http://ns.adobe.com/xap/1.0/g/"
            xmlns:dc="http://purl.org/dc/elements/1.1/">
         <xmp:CreatorTool>Adobe Illustrator CC 2014 (Macintosh)</xmp:CreatorTool>
         <xmp:CreateDate>2016-12-13T20:11:16+01:00</xmp:CreateDate>
         <xmp:Thumbnails>
            <rdf:Alt>
               <rdf:li rdf:parseType="Resource">
                  <xmpGImg:width>256</xmpGImg:width>
                  <xmpGImg:height>28</xmpGImg:height>
                  <xmpGImg:format>JPEG</xmpGImg:format>
                  <xmpGImg:image>/9j/4AAQSkZJRgABAgEASABIAAD/7QAsUGhvdG9zaG9wIDMuMAA4QklNA+0AAAAAABAASAAAAAEA&#xA;AQBIAAAAAQAB/+4ADkFkb2JlAGTAAAAAAf/bAIQABgQEBAUEBgUFBgkGBQYJCwgGBggLDAoKCwoK&#xA;DBAMDAwMDAwQDA4PEA8ODBMTFBQTExwbGxscHx8fHx8fHx8fHwEHBwcNDA0YEBAYGhURFRofHx8f&#xA;Hx8fHx8fHx8fHx8fHx8fHx8fHx8fHx8fHx8fHx8fHx8fHx8fHx8fHx8fHx8f/8AAEQgAHAEAAwER&#xA;AAIRAQMRAf/EAaIAAAAHAQEBAQEAAAAAAAAAAAQFAwIGAQAHCAkKCwEAAgIDAQEBAQEAAAAAAAAA&#xA;AQACAwQFBgcICQoLEAACAQMDAgQCBgcDBAIGAnMBAgMRBAAFIRIxQVEGE2EicYEUMpGhBxWxQiPB&#xA;UtHhMxZi8CRygvElQzRTkqKyY3PCNUQnk6OzNhdUZHTD0uIIJoMJChgZhJRFRqS0VtNVKBry4/PE&#xA;1OT0ZXWFlaW1xdXl9WZ2hpamtsbW5vY3R1dnd4eXp7fH1+f3OEhYaHiImKi4yNjo+Ck5SVlpeYmZ&#xA;qbnJ2en5KjpKWmp6ipqqusra6voRAAICAQIDBQUEBQYECAMDbQEAAhEDBCESMUEFURNhIgZxgZEy&#xA;obHwFMHR4SNCFVJicvEzJDRDghaSUyWiY7LCB3PSNeJEgxdUkwgJChgZJjZFGidkdFU38qOzwygp&#xA;0+PzhJSktMTU5PRldYWVpbXF1eX1RlZmdoaWprbG1ub2R1dnd4eXp7fH1+f3OEhYaHiImKi4yNjo&#xA;+DlJWWl5iZmpucnZ6fkqOkpaanqKmqq6ytrq+v/aAAwDAQACEQMRAD8A9U4q7FXYq7FXYq7FXYq7&#xA;FXYq7FXYq7FXYq7FXYq7FXYq7FXYq7FXYq7FXYq7FXYq7FXYq7FXYq7FXYq7FXYq7FXYq7FXYq7F&#xA;XYq7FXYq7FXYq7FXYq7FXYq7FXYq7FXYq7FXYq7FXYq7FXYq7FXYq7FXYq7FXYq7FXYq7FXYq7FX&#xA;Yq7FXYq7FXYq7FXYq7FXYq7FXYq7FXYq7FXYq7FXYq7FXYq7FXYq7FXYq7FXYq7FXYq7FXYq7FXY&#xA;q7FXYq7FXYq7FXYq7FXYq7FXYq7FXYq7FXYq7FXYq7FXYq7FXYq7FXYq7FXYq7FXYq7FXYq7FX//&#xA;2Q==</xmpGImg:image>
               </rdf:li>
            </rdf:Alt>
         </xmp:Thumbnails>
         <xmpTPg:MaxPageSize rdf:parseType="Resource">
            <stDim:w>473.753418</stDim:w>
            <stDim:h>48.958908</stDim:h>
            <stDim:unit>Pixels</stDim:unit>
         </xmpTPg:MaxPageSize>
         <xmpTPg:NPages>1</xmpTPg:NPages>
         <xmpTPg:HasVisibleTransparency>False</xmpTPg:HasVisibleTransparency>
         <xmpTPg:HasVisibleOverprint>False</xmpTPg:HasVisibleOverprint>
         <xmpTPg:SwatchGroups>
            <rdf:Seq>
               <rdf:li rdf:parseType="Resource">
                  <xmpG:groupName>Groupe de nuances par défaut</xmpG:groupName>
                  <xmpG:groupType>0</xmpG:groupType>
               </rdf:li>
            </rdf:Seq>
         </xmpTPg:SwatchGroups>
         <dc:format>image/svg+xml</dc:format>
      </rdf:Description>
   </rdf:RDF>
</x:xmpmeta>
                                                                                                    
                                                                                                    
                                                                                                    
                                                                                                    
                                                                                                    
                                                                                                    
                                                                                                    
                                                                                                    
                                                                                                    
                                                                                                    
                                                                                                    
                                                                                                    
                                                                                                    
                                                                                                    
                                                                                                    
                                                                                                    
                                                                                                    
                                                                                                    
                                                                                                    
                                                                                                    
                           
<?xpacket end="w"?>
	</metadata>
<rect id="backgroundrect" x="-402" y="376" fill="none" width="473.8" height="49"/>
<g>
	<title>Layer 1</title>
	<g id="svg_1">
		<path id="svg_2" fill="#FFFFFF" d="M-384.5,383.1c6.5,0,12.2,6.3,12.2,14.2c0,7.9-5.7,14.2-12.2,14.2s-12.2-6.3-12.2-14.2
			C-396.7,389.4-391,383.1-384.5,383.1L-384.5,383.1z M-384.5,410.9c6.9,0,7.8-8.5,7.8-13.5s-0.9-13.5-7.8-13.5s-7.8,8.5-7.8,13.5
			C-392.3,402.3-391.4,410.9-384.5,410.9L-384.5,410.9z"/>
		<path id="svg_3" fill="#FFFFFF" d="M-356.2,384.1h-3.1v-0.6h3.1c1.2,0,2.5-0.1,3.2-1v27.7h3.1v0.6h-9.4v-0.6h3.1V384.1
			L-356.2,384.1z"/>
		<path id="svg_4" fill="#FFFFFF" d="M-334.8,395.7h-3.1v-0.6h3.1c1.2,0,2.5-0.1,3.2-0.8v16h3.1v0.6h-9.4v-0.6h3.1L-334.8,395.7
			L-334.8,395.7z M-333.2,385.3c1.1,0,2,0.9,2,2c0,1.1-0.9,2-2,2c-1.1,0-2-0.9-2-2C-335.1,386.2-334.3,385.3-333.2,385.3
			L-333.2,385.3z"/>
		<path id="svg_5" fill="#FFFFFF" d="M-314.7,395.7h-2.2v-0.6h8.8v0.6h-2.9l4.8,11.7l3.8-8.6c0.4-1,0.7-1.7,0.7-2.1
			c0-0.9-1.1-1-1.7-1h-1.3v-0.6h6.7v0.6c-1.8,0-2.2,0.2-3,2l-6.3,14.1h-0.3L-314.7,395.7L-314.7,395.7z"/>
		<path id="svg_6" fill="#FFFFFF" d="M-283.5,395.7h-3.1v-0.6h3.1c1.2,0,2.5-0.1,3.2-0.8v16h3.1v0.6h-9.4v-0.6h3.1V395.7
			L-283.5,395.7z M-281.8,385.3c1.1,0,2,0.9,2,2c0,1.1-0.9,2-2,2s-2-0.9-2-2C-283.8,386.2-282.9,385.3-281.8,385.3L-281.8,385.3z"/>
		<path id="svg_7" fill="#FFFFFF" d="M-260.6,404.9c0,2.7,0.3,5.8,4,5.8c3.2,0,5.6-2.2,6.2-5.3h0.6c-0.6,3.5-3.2,5.9-6.8,5.9
			c-4.5,0-7.7-3.5-7.7-8.5c0-3.7,3-8.5,7.2-8.5c4.5,0,6.9,5.1,6.9,6.7c0,0.2-0.1,0.3-0.3,0.3h-10v3.6H-260.6z M-253.9,399.6
			c0-2.5-0.7-4.7-3.2-4.7c-2.7,0-3.5,2.3-3.5,4.7v1.1h6.4c0.2,0,0.3-0.1,0.3-0.3V399.6L-253.9,399.6z"/>
		<path id="svg_8" fill="#FFFFFF" d="M-234.3,395.7h-3.2v-0.6h3.2c1.2,0,2.5-0.1,3.2-0.8v4.5h0.1c0.5-1.7,1.8-4.5,5-4.5
			c1.4,0,2.5,0.9,2.5,2.3c0,1-0.6,1.8-1.8,1.8c-1.3,0-1.7-0.7-1.7-1.7c0-0.8,0.4-1.4,0.8-1.7c-0.2-0.1-0.3-0.1-0.5-0.1
			c-1.6,0-4.4,2.5-4.4,7.5v7.9h3.5v0.6h-10v-0.6h3.2L-234.3,395.7L-234.3,395.7z"/>
		<path id="svg_9" fill="#FFFFFF" d="M-179,384.4h-0.8c-6.9,0-8.4,1-8.4,7.4h-0.6v-8h23.6v8h-0.6c0-6.3-1.5-7.4-8.4-7.4h-0.8v25.9h4
			v0.6h-12v-0.6h4V384.4L-179,384.4z"/>
		<path id="svg_10" fill="#FFFFFF" d="M-150,384.1h-3v-0.6h3c1.2,0,2.5-0.1,3.2-1v15.6h0.1c1-1.8,2.9-3.9,5.7-3.9
			c4.1,0,5.3,2.1,5.3,4.3v11.7h3v0.6h-9.3v-0.6h3v-12.5c0-2.1-1-2.8-2.3-2.8c-3.2,0-4.9,3.2-5.6,4.5v10.9h2.9v0.6h-9v-0.6h3V384.1
			L-150,384.1z"/>
		<path id="svg_11" fill="#FFFFFF" d="M-116.3,404.9c0,2.7,0.3,5.8,4,5.8c3.2,0,5.6-2.2,6.2-5.3h0.6c-0.6,3.5-3.2,5.9-6.8,5.9
			c-4.5,0-7.7-3.5-7.7-8.5c0-3.7,3-8.5,7.2-8.5c4.5,0,6.9,5.1,6.9,6.7c0,0.2-0.1,0.3-0.3,0.3h-10v3.6H-116.3z M-109.6,399.6
			c0-2.5-0.7-4.7-3.2-4.7c-2.7,0-3.5,2.3-3.5,4.7v1.1h6.4c0.2,0,0.3-0.1,0.3-0.3L-109.6,399.6L-109.6,399.6z"/>
		<path id="svg_12" fill="#FFFFFF" d="M-82.5,407.7l3.6-9.2c0.3-0.8,0.5-1.4,0.5-1.8c0-0.8-0.7-1-2.2-1h-1.6v-0.6h7.5v0.6
			c-2.5,0-2.6,0.5-3.5,2.7l-3.4,8.6c-1.1,2.7-2,5.2-2.2,5.8c-1.5,6-2.2,8.5-4.9,8.5c-1.2,0-2.1-0.7-2.1-2c0-1.1,0.7-1.8,1.8-1.8
			c1,0,1.6,0.7,1.6,1.5c0,0.3,0,0.4,0,0.6s0.1,0.4,0.3,0.4c1.3,0,2.6-6.5,2.9-7.8l-7.1-16.4h-2.1v-0.6h8.6v0.6h-2.8L-82.5,407.7
			L-82.5,407.7z"/>
		<path id="svg_13" fill="#FFFFFF" d="M-61.8,405.3h0.5c0.3,2,1.3,5.4,5.3,5.4c2.1,0,3.7-1.4,3.7-3.6c0-3-2.3-3.1-4.3-3.3
			c-2.5-0.3-4.9-0.6-4.9-4.6c0-2.8,1.8-5,4.8-5c2.1,0,3.5,1.3,3.9,1.3c0.2,0,0.3-0.3,0.3-0.8v-0.3h0.5l0.2,4.6h-0.5
			c-0.3-2.2-1.4-4.2-4.5-4.2c-2,0-3.5,1.1-3.5,3.1s1.5,2.7,4,2.8l1.3,0.1c3.1,0.2,4.4,1.9,4.4,4.5c0,3.6-2.4,5.9-5.3,5.9
			c-3,0-4-1.7-4.7-1.7c-0.5,0-0.4,0.6-0.5,1.4h-0.6L-61.8,405.3L-61.8,405.3z"/>
		<path id="svg_14" fill="#FFFFFF" d="M-34.5,384.1h-3v-0.6h3c1.2,0,2.5-0.1,3.2-1v21.4l6.2-5.9c0.8-0.8,1.3-1.5,1.3-1.8
			c0-0.4-0.5-0.6-1.7-0.6h-1.3V395h8.1v0.6H-20c-1.3,0-1.9,0.3-3.2,1.5l-4.3,4l6,7.5c0.8,1,1.2,1.5,1.9,1.5h2v0.6h-9.7v-0.6h2.8
			l-5.4-6.7l-1.3,1.3v5.4h2.7v0.6h-9v-0.6h3V384.1L-34.5,384.1z"/>
		<path id="svg_15" fill="#FFFFFF" d="M-0.8,404.9c0,2.7,0.3,5.8,4,5.8c3.2,0,5.6-2.2,6.2-5.3H10c-0.6,3.5-3.2,5.9-6.8,5.9
			c-4.5,0-7.7-3.5-7.7-8.5c0-3.7,3-8.5,7.2-8.5c4.5,0,6.9,5.1,6.9,6.7c0,0.2-0.1,0.3-0.3,0.3h-10v3.6H-0.8z M5.9,399.6
			c0-2.5-0.7-4.7-3.2-4.7c-2.7,0-3.5,2.3-3.5,4.7v1.1h6.4c0.2,0,0.3-0.1,0.3-0.3L5.9,399.6L5.9,399.6z"/>
		<path id="svg_16" fill="#FFFFFF" d="M25.4,395.7h-3v-0.6h3c1.8,0,2.5,0,3.2-0.8v3.9h0.1c1-1.8,2.9-3.9,5.7-3.9
			c4.1,0,5.3,2.1,5.3,4.3v11.7h3v0.6h-9.3v-0.6h3v-12.6c0-2.1-1-2.8-2.3-2.8c-3.2,0-4.9,3.2-5.6,4.5v10.9h2.9v0.6h-9.2v-0.6h3v-14.6
			H25.4z"/>
		<path id="svg_17" fill="#FFFFFF" d="M55.9,405.3h0.5c0.3,2,1.3,5.4,5.3,5.4c2.1,0,3.7-1.4,3.7-3.6c0-3-2.3-3.1-4.3-3.3
			c-2.5-0.3-4.9-0.6-4.9-4.6c0-2.8,1.8-5,4.8-5c2.1,0,3.5,1.3,3.9,1.3c0.2,0,0.3-0.3,0.3-0.8v-0.3h0.5l0.2,4.6h-0.5
			c-0.3-2.2-1.4-4.2-4.5-4.2c-2,0-3.5,1.1-3.5,3.1s1.5,2.7,4,2.8l1.3,0.1c3.1,0.2,4.4,1.9,4.4,4.5c0,3.6-2.4,5.9-5.4,5.9
			s-4-1.7-4.7-1.7c-0.5,0-0.4,0.6-0.5,1.4h-0.6L55.9,405.3L55.9,405.3z"/>
	</g>
</g>
</svg>
